<?xml version="1.0" encoding="UTF-8" standalone="no"?>
<svg
   version="1.0"
   width="1600.000000pt"
   height="1600.000000pt"
   viewBox="0 0 1600.000000 1600.000000"
   preserveAspectRatio="xMidYMid meet"
   id="svg12"
   sodipodi:docname="AppIcon.svg"
   inkscape:version="1.1.1 (3bf5ae0d25, 2021-09-20)"
   inkscape:export-filename="C:\Users\Yegor\Desktop\AppIcon.png"
   inkscape:export-xdpi="46.285271"
   inkscape:export-ydpi="46.285271"
   xmlns:inkscape="http://www.inkscape.org/namespaces/inkscape"
   xmlns:sodipodi="http://sodipodi.sourceforge.net/DTD/sodipodi-0.dtd"
   xmlns="http://www.w3.org/2000/svg"
   xmlns:svg="http://www.w3.org/2000/svg">
  <defs
     id="defs16">
    <filter
       style="color-interpolation-filters:sRGB;"
       inkscape:label="Drop Shadow"
       id="filter5095"
       x="-0.03287991"
       y="-0.032886376"
       width="1.0657598"
       height="1.0657728">
      <feFlood
         flood-opacity="1"
         flood-color="rgb(255,255,255)"
         result="flood"
         id="feFlood5085" />
      <feComposite
         in="SourceGraphic"
         in2="flood"
         operator="in"
         result="composite1"
         id="feComposite5087" />
      <feGaussianBlur
         in="composite1"
         stdDeviation="200"
         result="blur"
         id="feGaussianBlur5089" />
      <feOffset
         dx="0"
         dy="0"
         result="offset"
         id="feOffset5091" />
      <feComposite
         in="offset"
         in2="SourceGraphic"
         operator="out"
         result="composite2"
         id="feComposite5093" />
    </filter>
    <filter
       style="color-interpolation-filters:sRGB;"
       inkscape:label="Drop Shadow"
       id="filter5235"
       x="-0.032879904"
       y="-0.032886385"
       width="1.0657598"
       height="1.0657728">
      <feFlood
         flood-opacity="1"
         flood-color="rgb(255,255,255)"
         result="flood"
         id="feFlood5225" />
      <feComposite
         in="SourceGraphic"
         in2="flood"
         operator="in"
         result="composite1"
         id="feComposite5227" />
      <feGaussianBlur
         in="composite1"
         stdDeviation="200"
         result="blur"
         id="feGaussianBlur5229" />
      <feOffset
         dx="0"
         dy="0"
         result="offset"
         id="feOffset5231" />
      <feComposite
         in="SourceGraphic"
         in2="offset"
         operator="over"
         result="composite2"
         id="feComposite5233" />
    </filter>
    <filter
       style="color-interpolation-filters:sRGB;"
       inkscape:label="Drop Shadow"
       id="filter5265"
       x="-0.18897638"
       y="-0.15533981"
       width="1.3779528"
       height="1.3106796">
      <feFlood
         flood-opacity="1"
         flood-color="rgb(255,255,255)"
         result="flood"
         id="feFlood5255" />
      <feComposite
         in="SourceGraphic"
         in2="flood"
         operator="in"
         result="composite1"
         id="feComposite5257" />
      <feGaussianBlur
         in="composite1"
         stdDeviation="200"
         result="blur"
         id="feGaussianBlur5259" />
      <feOffset
         dx="0"
         dy="0"
         result="offset"
         id="feOffset5261" />
      <feComposite
         in="SourceGraphic"
         in2="offset"
         operator="over"
         result="composite2"
         id="feComposite5263" />
    </filter>
    <filter
       style="color-interpolation-filters:sRGB;"
       inkscape:label="Drop Shadow"
       id="filter5277"
       x="-0.19354839"
       y="-0.15184512"
       width="1.3870968"
       height="1.3036902">
      <feFlood
         flood-opacity="1"
         flood-color="rgb(255,255,255)"
         result="flood"
         id="feFlood5267" />
      <feComposite
         in="SourceGraphic"
         in2="flood"
         operator="in"
         result="composite1"
         id="feComposite5269" />
      <feGaussianBlur
         in="composite1"
         stdDeviation="200"
         result="blur"
         id="feGaussianBlur5271" />
      <feOffset
         dx="0"
         dy="0"
         result="offset"
         id="feOffset5273" />
      <feComposite
         in="SourceGraphic"
         in2="offset"
         operator="over"
         result="composite2"
         id="feComposite5275" />
    </filter>
    <filter
       style="color-interpolation-filters:sRGB;"
       inkscape:label="Drop Shadow"
       id="filter5289"
       x="-0.19551935"
       y="-0.15533981"
       width="1.3910387"
       height="1.3106796">
      <feFlood
         flood-opacity="1"
         flood-color="rgb(255,255,255)"
         result="flood"
         id="feFlood5279" />
      <feComposite
         in="SourceGraphic"
         in2="flood"
         operator="in"
         result="composite1"
         id="feComposite5281" />
      <feGaussianBlur
         in="composite1"
         stdDeviation="200"
         result="blur"
         id="feGaussianBlur5283" />
      <feOffset
         dx="0"
         dy="0"
         result="offset"
         id="feOffset5285" />
      <feComposite
         in="SourceGraphic"
         in2="offset"
         operator="over"
         result="composite2"
         id="feComposite5287" />
    </filter>
  </defs>
  <sodipodi:namedview
     id="namedview14"
     pagecolor="#000000"
     bordercolor="#666666"
     borderopacity="1.0"
     inkscape:pageshadow="2"
     inkscape:pageopacity="0"
     inkscape:pagecheckerboard="0"
     inkscape:document-units="pt"
     showgrid="false"
     inkscape:zoom="0.18796875"
     inkscape:cx="1433.749"
     inkscape:cy="933.66584"
     inkscape:window-width="1920"
     inkscape:window-height="991"
     inkscape:window-x="-9"
     inkscape:window-y="-9"
     inkscape:window-maximized="1"
     inkscape:current-layer="g10" />
  <g
     transform="matrix(0.1,0,0,-0.1,0,1600)"
     fill="#000000"
     stroke="none"
     id="g10"
     style="display:inline">
    <path
       d="m 7690,15358 c -1268,-34 -2545,-425 -3635,-1111 -321,-202 -667,-462 -954,-715 -154,-136 -464,-445 -609,-607 C 1459,11770 819,10314 670,8780 638,8447 629,7905 650,7595 773,5801 1514,4165 2775,2905 3707,1973 4852,1318 6120,991 6721,836 7277,767 7925,767 c 473,-1 804,26 1232,98 1468,250 2807,932 3882,1980 562,548 1048,1210 1411,1920 907,1779 1037,3894 355,5775 -182,502 -430,1006 -716,1452 -476,746 -1084,1397 -1799,1930 -1137,847 -2493,1343 -3900,1428 -239,14 -411,16 -700,8 z m -70,-2223 v -1565 h -97 c -435,0 -1264,85 -1818,186 -192,35 -556,111 -587,123 -14,5 -7,29 56,186 256,637 550,1157 905,1600 119,149 372,409 504,518 309,256 648,431 967,501 36,8 66,14 68,15 1,1 2,-703 2,-1564 z m 895,1494 c 482,-158 964,-541 1380,-1094 305,-406 594,-937 816,-1499 32,-82 59,-150 59,-152 0,-9 -488,-110 -746,-153 -524,-88 -1282,-161 -1676,-161 h -98 v 1558 c 0,857 2,1561 6,1564 8,9 128,-20 259,-63 z m -2736,-316 c -489,-516 -952,-1294 -1265,-2125 -26,-71 -51,-128 -54,-128 -21,0 -451,151 -610,215 -296,117 -760,334 -760,354 0,10 336,340 440,432 632,561 1386,1006 2175,1285 83,29 152,53 154,53 2,1 -34,-38 -80,-86 z m 4601,-47 c 727,-287 1391,-697 1985,-1227 147,-130 415,-396 415,-410 0,-21 -442,-228 -745,-349 -246,-99 -622,-229 -629,-218 -1,2 -26,66 -55,143 -315,825 -764,1583 -1235,2082 -53,55 -96,103 -96,106 0,7 194,-62 360,-127 z M 2848,12038 c 419,-219 782,-373 1239,-528 98,-33 177,-64 176,-68 0,-4 -17,-65 -37,-137 -76,-277 -182,-748 -221,-977 l -6,-38 h 329 329 l 28,138 c 25,126 133,566 186,760 13,45 28,82 34,82 5,0 87,-18 181,-40 692,-160 1477,-258 2377,-296 l 157,-6 v -319 -319 h 315 315 v 319 319 l 158,6 c 929,39 1673,132 2410,302 85,20 155,34 157,32 15,-15 162,-595 207,-815 l 33,-163 h 327 c 306,0 328,1 328,18 0,66 -145,709 -226,1006 -20,71 -32,132 -27,136 4,4 67,27 138,50 431,141 916,347 1286,545 87,47 162,85 167,85 11,0 208,-271 314,-435 544,-834 896,-1783 1023,-2759 21,-162 45,-428 45,-498 v -58 h -785 -785 v -315 -315 h 786 787 l -7,-131 c -24,-461 -132,-1047 -281,-1524 -109,-351 -220,-625 -395,-980 -180,-363 -383,-697 -616,-1011 l -84,-114 -72,41 c -139,77 -534,268 -710,343 -188,80 -506,199 -701,262 -104,34 -118,41 -114,59 2,11 25,97 50,190 77,284 176,732 202,908 l 7,47 -327,-2 -328,-3 -43,-200 c -84,-387 -189,-775 -211,-775 -7,0 -82,15 -166,34 -664,150 -1347,243 -2101,286 -98,5 -218,10 -266,10 -48,0 -108,3 -134,6 l -46,7 v 318 319 h -315 -315 v -319 -318 l -46,-7 c -26,-3 -86,-6 -134,-6 -172,0 -575,-27 -915,-61 -492,-49 -995,-130 -1433,-230 -96,-21 -179,-39 -186,-39 -19,0 -150,497 -217,823 l -33,157 h -328 c -230,0 -328,-3 -328,-11 0,-63 174,-828 240,-1054 11,-38 20,-77 20,-85 0,-11 -39,-28 -132,-59 -448,-146 -1009,-387 -1374,-590 l -90,-50 -51,67 c -574,760 -992,1666 -1189,2582 -69,323 -124,706 -140,993 l -7,117 h 792 791 v 315 315 h -790 -790 v 46 c 0,79 30,380 56,569 149,1069 563,2089 1207,2980 75,103 116,155 124,155 2,0 83,-42 181,-92 z M 7620,2995 c 0,-861 -3,-1565 -7,-1565 -28,0 -230,56 -311,86 -840,314 -1598,1222 -2133,2557 -32,81 -59,153 -59,161 0,32 721,170 1205,230 411,51 908,90 1203,95 l 102,1 z m 1210,1540 c 496,-34 954,-92 1430,-181 143,-27 503,-104 508,-109 2,-2 -23,-70 -56,-152 -331,-826 -730,-1473 -1197,-1938 -354,-354 -681,-562 -1065,-678 -63,-19 -134,-38 -157,-42 l -43,-7 v 1568 1567 l 183,-7 c 100,-4 279,-13 397,-21 z M 4481,4033 c 6,-21 43,-116 80,-211 260,-653 584,-1230 948,-1692 87,-111 242,-288 300,-345 23,-21 41,-42 41,-47 0,-4 -53,11 -117,33 -462,159 -1030,441 -1453,721 -254,168 -513,366 -751,576 -146,128 -439,415 -439,429 0,24 605,301 880,403 116,43 479,168 492,169 3,1 12,-16 19,-36 z m 7204,-55 c 186,-66 384,-142 540,-208 153,-64 555,-262 555,-273 0,-25 -370,-377 -585,-558 -603,-503 -1338,-921 -2050,-1165 l -130,-45 36,38 c 527,562 953,1261 1276,2093 35,91 68,175 73,187 9,22 10,22 62,7 29,-9 130,-43 223,-76 z"
       id="path2"
       style="display:inline;fill:#ff5722;fill-opacity:1;filter:url(#filter5235)" />
    <path
       d="m 10977,9640 c -490,-61 -830,-287 -944,-625 -25,-73 -27,-93 -27,-235 0,-142 2,-161 26,-228 41,-113 103,-208 197,-303 174,-174 369,-276 817,-429 99,-33 233,-87 300,-120 101,-49 129,-68 176,-118 68,-74 83,-121 83,-257 -1,-116 -21,-174 -82,-237 -105,-108 -373,-137 -584,-64 -165,57 -250,181 -266,389 l -6,77 h -383 -384 v -27 c 0,-67 31,-226 59,-302 67,-184 230,-369 428,-484 131,-76 282,-130 474,-169 101,-20 143,-23 359,-23 214,0 259,3 355,22 365,74 605,232 725,478 56,115 73,195 73,350 0,151 -23,265 -74,367 -136,272 -371,434 -883,608 -396,134 -548,220 -624,349 -24,40 -27,56 -27,131 0,91 11,128 57,197 78,115 276,176 463,144 192,-34 301,-148 328,-346 l 11,-85 h 378 378 v 48 c 0,72 -34,218 -69,301 -81,190 -243,356 -449,460 -87,44 -248,96 -357,116 -104,19 -423,28 -528,15 z"
       id="path4"
       style="display:inline;fill:#263238;fill-opacity:1;filter:url(#filter5277)" />
    <path
       d="M 3490,8065 V 6520 h 554 c 313,0 599,5 657,10 682,69 1115,431 1225,1025 16,87 19,153 19,505 0,352 -3,418 -19,505 -112,605 -559,975 -1251,1034 -66,6 -360,11 -652,11 h -533 z m 1165,1014 c 261,-31 409,-141 479,-354 38,-117 46,-235 46,-660 0,-425 -8,-543 -46,-660 -59,-178 -173,-286 -358,-337 -57,-16 -115,-21 -293,-25 l -223,-5 v 1026 1026 h 153 c 83,0 193,-5 242,-11 z"
       id="path6"
       style="display:inline;fill:#263238;fill-opacity:1;filter:url(#filter5289)" />
    <path
       d="M 6670,8065 V 6520 h 365 365 l 2,1009 3,1008 533,-1008 534,-1009 h 369 369 l -2,1543 -3,1542 -362,3 -363,2 V 8598 c 0,-599 -4,-1008 -9,-1002 -5,5 -247,459 -539,1009 l -530,1000 -366,3 -366,2 z"
       id="path8"
       style="display:inline;fill:#263238;fill-opacity:1;filter:url(#filter5265)" />
  </g>
</svg>
